HIERARCHY
ROOT Pelvis
{
	OFFSET 0.000000 0.000000 0.000000
	CHANNELS 6 Xposition Yposition Zposition Zrotation Yrotation Xrotation 
	JOINT Left_hip
	{
		OFFSET 0.068973 -0.091024 -0.007589
		CHANNELS 3 Zrotation Yrotation Xrotation
		JOINT Left_knee
		{
			OFFSET 0.036482 -0.391037 -0.003979
			CHANNELS 3 Zrotation Yrotation Xrotation
			JOINT Left_ankle
			{
				OFFSET -0.012239 -0.415469 -0.043440
				CHANNELS 3 Zrotation Yrotation Xrotation
				JOINT Left_foot
				{
					OFFSET 0.023806 -0.058558 0.118702
					CHANNELS 3 Zrotation Yrotation Xrotation
					End Site
					{
						OFFSET 0.000000 0.000000 0.000000
					}
				}
			}
		}
	}
	JOINT Right_hip
	{
		OFFSET -0.066552 -0.090468 -0.003847
		CHANNELS 3 Zrotation Yrotation Xrotation
		JOINT Right_knee
		{
			OFFSET -0.042435 -0.398340 -0.006400
			CHANNELS 3 Zrotation Yrotation Xrotation
			JOINT Right_ankle
			{
				OFFSET 0.014931 -0.415421 -0.041327
				CHANNELS 3 Zrotation Yrotation Xrotation
				JOINT Right_foot
				{
					OFFSET -0.021472 -0.049410 0.121889
					CHANNELS 3 Zrotation Yrotation Xrotation
					End Site
					{
						OFFSET 0.000000 0.000000 0.000000
					}
				}
			}
		}
	}
	JOINT Spine1
	{
		OFFSET -0.002904 0.105700 -0.022855
		CHANNELS 3 Zrotation Yrotation Xrotation
		JOINT Spine2
		{
			OFFSET 0.004179 0.132554 -0.002501
			CHANNELS 3 Zrotation Yrotation Xrotation
			JOINT Spine3
			{
				OFFSET 0.001987 0.049603 0.025988
				CHANNELS 3 Zrotation Yrotation Xrotation
				JOINT Neck
				{
					OFFSET -0.003935 0.211336 -0.045638
					CHANNELS 3 Zrotation Yrotation Xrotation
					JOINT Head
					{
						OFFSET 0.003906 0.065991 0.051018
						CHANNELS 3 Zrotation Yrotation Xrotation
						End Site
						{
							OFFSET 0.000000 0.000000 0.000000
						}
					}
				}
				JOINT Left_collar
				{
					OFFSET 0.072882 0.117751 -0.036270
					CHANNELS 3 Zrotation Yrotation Xrotation
					JOINT Left_shoulder
					{
						OFFSET 0.082118 0.032630 -0.005771
						CHANNELS 3 Zrotation Yrotation Xrotation
						JOINT Left_elbow
						{
							OFFSET 0.263305 -0.015144 -0.028095
							CHANNELS 3 Zrotation Yrotation Xrotation
							JOINT Left_wrist
							{
								OFFSET 0.250741 0.010115 -0.000759
								CHANNELS 3 Zrotation Yrotation Xrotation
								JOINT Left_palm
								{
									OFFSET 0.080683 -0.009989 -0.013613
									CHANNELS 3 Zrotation Yrotation Xrotation
									End Site
									{
										OFFSET 0.000000 0.000000 0.000000
									}
								}
							}
						}
					}
				}
				JOINT Right_collar
				{
					OFFSET -0.074811 0.116132 -0.040385
					CHANNELS 3 Zrotation Yrotation Xrotation
					JOINT Right_shoulder
					{
						OFFSET -0.085089 0.032943 -0.007484
						CHANNELS 3 Zrotation Yrotation Xrotation
						JOINT Right_elbow
						{
							OFFSET -0.254763 -0.014219 -0.020321
							CHANNELS 3 Zrotation Yrotation Xrotation
							JOINT Right_wrist
							{
								OFFSET -0.256597 0.009233 -0.005063
								CHANNELS 3 Zrotation Yrotation Xrotation
								JOINT Right_palm
								{
									OFFSET -0.080528 -0.007219 -0.010379
									CHANNELS 3 Zrotation Yrotation Xrotation
									End Site
									{
										OFFSET 0.000000 0.000000 0.000000
									}
								}
							}
						}
					}
				}
			}
		}
	}
}
MOTION
Frames: 6
Frame Time: 0.100000
0.273789 0.445087 -0.442201 174.282090 26.853260 -65.129949 11.473925 0.534147 -24.611502 -1.570459 10.967252 64.816553 -1.848764 14.655561 13.388221 19.336252 12.760266 -18.904764 -7.240881 -0.292277 -26.304143 -4.109591 -10.437106 70.884044 1.727963 -10.379326 12.517818 -17.931525 -3.175004 -12.823434 -0.874400 1.256708 23.442303 2.098176 -6.409187 19.737087 0.620521 2.879315 -13.515213 -9.143681 -1.500014 19.562586 7.817475 1.279918 2.288488 -18.072436 -37.725921 6.354748 -35.948946 -34.037005 25.375037 -119.651098 -65.855499 152.370714 -17.436756 -12.759669 1.627245 -28.897294 -14.310585 -11.090170 14.517717 41.660977 3.858603 33.882496 31.448776 20.597870 147.418714 63.637466 168.298979 19.593525 15.596603 -6.680976 28.015194 10.667363 -5.044953 
0.274234 0.445765 -0.442915 174.268855 26.761347 -65.513945 11.604160 0.668082 -24.262162 -1.556380 10.898146 64.812914 -2.052081 14.798910 13.374518 19.786956 12.741499 -19.136750 -7.271949 -0.324026 -25.999459 -3.995916 -10.402834 70.913735 1.919051 -10.090152 12.852252 -18.164065 -3.560402 -13.624263 -0.828886 1.182351 23.884860 2.005769 -6.314336 19.901716 0.761092 2.864751 -13.643065 -8.825573 -0.314585 16.976345 7.574172 2.272114 -0.208636 -18.263976 -38.021629 6.333659 -36.165564 -33.539733 25.405920 -120.148490 -65.829860 153.325448 -17.214018 -12.864940 2.207524 -28.715320 -14.245635 -11.169338 14.389577 41.912858 3.932938 34.030305 31.217682 20.563137 147.465800 63.499806 168.580250 19.660003 15.727861 -6.619178 27.913452 10.639822 -4.947662 
0.274506 0.446746 -0.443707 174.211611 26.573204 -65.855402 11.682564 0.664170 -23.943703 -1.437015 10.680737 64.737954 -2.308510 15.229153 13.433420 20.604621 12.958593 -19.297587 -7.175962 -0.229273 -25.762338 -4.163089 -10.477077 70.852086 2.100887 -9.545562 13.641493 -18.025633 -4.624474 -14.790676 -0.672549 1.127053 24.530315 2.001126 -6.142464 20.184997 1.243922 3.006338 -13.635630 -7.576623 5.049603 14.039277 7.417463 7.083190 -4.376606 -18.561081 -38.707200 6.035339 -36.289043 -32.759791 25.236213 -119.999315 -65.804535 154.811869 -16.872530 -12.740783 4.387489 -28.783080 -14.288817 -11.328587 13.960539 41.954692 4.138593 33.711119 31.305177 19.921824 146.861085 63.127907 169.041443 20.367458 15.575579 -4.526420 28.289920 10.862574 -5.094747 
0.274350 0.448012 -0.443784 174.150844 26.318649 -66.119905 11.806535 0.627260 -23.717206 -1.370102 10.302787 64.818544 -2.623708 15.602284 13.248476 21.311660 13.213182 -19.521906 -7.049525 -0.042471 -25.530932 -4.219635 -10.651436 70.804011 2.011815 -8.939296 14.041301 -17.285941 -5.413387 -15.580209 -0.526181 1.180663 24.932216 2.167768 -5.995729 20.419983 1.820889 3.221410 -13.495981 -6.226780 12.063716 12.099834 7.218301 13.232285 -7.794490 -19.033870 -39.401876 5.972829 -36.526233 -32.092969 25.435176 -121.310871 -65.466357 156.164550 -16.290989 -13.916268 2.753178 -29.640727 -14.081080 -11.123966 13.707514 41.840256 4.568393 33.755237 31.103089 19.578746 147.556966 63.000330 169.327304 20.691896 16.175475 -5.737764 29.168545 10.809626 -4.797541 
0.274681 0.448657 -0.443265 174.322145 26.060010 -66.268940 11.928806 0.619996 -23.372782 -1.365605 10.162614 64.772492 -2.850474 15.451797 13.270268 21.604260 13.740419 -19.486919 -6.979744 0.002723 -25.195578 -4.501255 -10.817266 70.789525 2.129374 -8.078662 14.101494 -16.874224 -6.515004 -15.905615 -0.320126 1.166506 25.080089 2.108546 -5.812080 21.127281 2.074524 3.325143 -13.649482 -5.609467 16.134209 11.761458 6.284261 16.091014 -10.805186 -19.464875 -39.813090 5.904427 -36.492858 -31.261789 24.806260 -119.757066 -65.581335 157.485350 -17.943311 -13.282286 8.499603 -29.118186 -14.240177 -11.467138 14.085852 41.704181 5.222150 33.023675 30.904895 18.568562 144.698132 62.146888 169.781116 23.728935 15.285217 1.502361 29.044562 11.193030 -5.356603 
0.275717 0.449269 -0.442821 174.441312 26.117462 -66.400512 11.966211 0.785029 -23.151988 -1.310861 10.266375 64.776842 -2.835104 15.622049 13.026998 21.830230 13.694835 -19.315336 -6.999739 0.025800 -25.094560 -4.573553 -10.832410 70.793490 2.023113 -7.954153 14.384105 -16.615993 -6.745522 -16.122311 -0.347872 1.194549 25.228891 2.033505 -5.719196 21.641633 2.112167 3.360132 -13.682899 -5.593048 17.727021 11.447999 5.757239 17.262115 -12.003651 -19.682991 -39.978392 6.045976 -36.317665 -30.983149 24.691016 -119.235851 -65.835313 156.968600 -18.193212 -13.246321 8.516640 -29.098145 -14.198891 -11.648856 14.137735 41.707402 5.415954 32.958048 30.812937 18.397354 144.897628 62.341043 169.828696 24.058645 15.247193 1.080089 29.168259 11.135335 -5.358024 
